<mxfile host="app.diagrams.net" modified="2022-01-10T00:36:09.393Z" agent="5.0 (Windows NT 10.0; Win64; x64) AppleWebKit/537.36 (KHTML, like Gecko) Chrome/97.0.4692.71 Safari/537.36" etag="VTd7ljb6p81BsQgo3grP" version="16.2.4" type="github">
  <diagram id="QiqQPjokSXzeCGSz-_34" name="Page-1">
    <mxGraphModel dx="1422" dy="762" grid="1" gridSize="10" guides="1" tooltips="1" connect="1" arrows="1" fold="1" page="1" pageScale="1" pageWidth="827" pageHeight="1169" math="0" shadow="0">
      <root>
        <mxCell id="0" />
        <mxCell id="1" parent="0" />
        <mxCell id="jR9NrZmdP8BhoqR_ZZH2-4" value="&lt;p style=&quot;margin: 0px ; margin-top: 4px ; text-align: center&quot;&gt;&lt;i&gt;&amp;lt;&amp;lt;Interface&amp;gt;&amp;gt;&lt;/i&gt;&lt;br&gt;&lt;b&gt;AudioFeaturesObject&lt;/b&gt;&lt;br&gt;&lt;/p&gt;&lt;hr size=&quot;1&quot;&gt;&lt;p style=&quot;margin: 0px ; margin-left: 4px&quot;&gt;+ acousticness: number&lt;/p&gt;&lt;p style=&quot;margin: 0px ; margin-left: 4px&quot;&gt;+ analysis_url: string;&lt;/p&gt;&lt;div&gt;&lt;div&gt;&amp;nbsp;+ analysis_url: string;&lt;/div&gt;&lt;div&gt;&amp;nbsp;+ danceability: number;&lt;/div&gt;&lt;div&gt;&lt;span&gt;&amp;nbsp;+&lt;/span&gt;&lt;span&gt;&amp;nbsp;&lt;/span&gt;duration_ms: number;&lt;/div&gt;&lt;div&gt;&lt;span&gt;&amp;nbsp;+&lt;/span&gt;&lt;span&gt;&amp;nbsp;&lt;/span&gt;energy: number;&lt;/div&gt;&lt;div&gt;&lt;span&gt;&amp;nbsp;+&lt;/span&gt;&lt;span&gt;&amp;nbsp;&lt;/span&gt;id: string;&lt;/div&gt;&lt;div&gt;&lt;span&gt;&amp;nbsp;+&lt;/span&gt;&lt;span&gt;&amp;nbsp;&lt;/span&gt;instrumentalness: number;&lt;/div&gt;&lt;div&gt;&lt;span&gt;&amp;nbsp;+&lt;/span&gt;&lt;span&gt;&amp;nbsp;&lt;/span&gt;key: number;&lt;/div&gt;&lt;div&gt;&lt;span&gt;&amp;nbsp;+&lt;/span&gt;&lt;span&gt;&amp;nbsp;&lt;/span&gt;liveness: number;&lt;/div&gt;&lt;div&gt;&lt;span&gt;&amp;nbsp;+&lt;/span&gt;&lt;span&gt;&amp;nbsp;&lt;/span&gt;loudness: number;&lt;/div&gt;&lt;div&gt;&lt;span&gt;&amp;nbsp;+&lt;/span&gt;&lt;span&gt;&amp;nbsp;&lt;/span&gt;mode: number;&lt;/div&gt;&lt;div&gt;&lt;span&gt;&amp;nbsp;+&lt;/span&gt;&lt;span&gt;&amp;nbsp;&lt;/span&gt;speechiness: number;&lt;/div&gt;&lt;div&gt;&lt;span&gt;&amp;nbsp;+&lt;/span&gt;&lt;span&gt;&amp;nbsp;&lt;/span&gt;tempo: number;&lt;/div&gt;&lt;div&gt;&lt;span&gt;&amp;nbsp;+&lt;/span&gt;&lt;span&gt;&amp;nbsp;&lt;/span&gt;time_signature: number;&lt;/div&gt;&lt;div&gt;&lt;span&gt;&amp;nbsp;+&lt;/span&gt;&lt;span&gt;&amp;nbsp;&lt;/span&gt;track_href: string;&lt;/div&gt;&lt;div&gt;&lt;span&gt;&amp;nbsp;+&lt;/span&gt;&lt;span&gt;&amp;nbsp;&lt;/span&gt;type: &quot;audio_features&quot;;&lt;/div&gt;&lt;div&gt;&lt;span&gt;&amp;nbsp;+&lt;/span&gt;&lt;span&gt;&amp;nbsp;&lt;/span&gt;uri: string;&lt;/div&gt;&lt;div&gt;&lt;span&gt;&amp;nbsp;+&lt;/span&gt;&lt;span&gt;&amp;nbsp;&lt;/span&gt;valence: number;&lt;/div&gt;&lt;/div&gt;" style="verticalAlign=top;align=left;overflow=fill;fontSize=12;fontFamily=Helvetica;html=1;" vertex="1" parent="1">
          <mxGeometry x="70" y="70" width="190" height="330" as="geometry" />
        </mxCell>
      </root>
    </mxGraphModel>
  </diagram>
</mxfile>
